<?xml version="1.0" encoding="UTF-8"?>
<svg xmlns="http://www.w3.org/2000/svg" xmlns:xlink="http://www.w3.org/1999/xlink" width="28pt" height="28pt" viewBox="0 0 28 28" version="1.1">
<g id="surface1">
<path style=" stroke:none;fill-rule:nonzero;fill:rgb(100%,100%,100%);fill-opacity:1;" d="M 13.996094 0.105469 L 13.863281 0.207031 L 13.847656 2.597656 L 13.832031 4.980469 L 13.996094 5.140625 C 14.105469 5.253906 14.207031 5.304688 14.328125 5.304688 C 14.449219 5.304688 14.550781 5.253906 14.660156 5.140625 L 14.824219 4.980469 L 14.808594 2.597656 L 14.792969 0.207031 L 14.660156 0.105469 C 14.585938 0.0429688 14.449219 0 14.328125 0 C 14.207031 0 14.070312 0.0429688 13.996094 0.105469 Z M 13.996094 0.105469 "/>
<path style=" stroke:none;fill-rule:nonzero;fill:rgb(100%,100%,100%);fill-opacity:1;" d="M 10.550781 2.402344 C 10.417969 2.503906 10.417969 2.515625 10.402344 3.742188 L 10.386719 4.976562 L 10.550781 5.140625 C 10.660156 5.253906 10.761719 5.304688 10.882812 5.304688 C 11.003906 5.304688 11.105469 5.253906 11.214844 5.140625 L 11.378906 4.976562 L 11.363281 3.742188 C 11.347656 2.515625 11.347656 2.503906 11.214844 2.402344 C 11.140625 2.339844 11.003906 2.296875 10.882812 2.296875 C 10.761719 2.296875 10.625 2.339844 10.550781 2.402344 Z M 10.550781 2.402344 "/>
<path style=" stroke:none;fill-rule:nonzero;fill:rgb(100%,100%,100%);fill-opacity:1;" d="M 17.417969 2.433594 C 17.28125 2.566406 17.28125 2.566406 17.28125 3.742188 C 17.28125 4.992188 17.308594 5.140625 17.539062 5.246094 C 17.761719 5.347656 17.9375 5.316406 18.105469 5.140625 L 18.269531 4.976562 L 18.253906 3.742188 C 18.238281 2.515625 18.238281 2.503906 18.105469 2.402344 C 17.921875 2.246094 17.582031 2.265625 17.417969 2.433594 Z M 17.417969 2.433594 "/>
<path style=" stroke:none;fill-rule:nonzero;fill:rgb(100%,100%,100%);fill-opacity:1;" d="M 13.5625 6.128906 C 11.726562 6.359375 10.078125 7.296875 9 8.734375 C 6.945312 11.472656 7.257812 15.261719 9.734375 17.632812 C 10.648438 18.5 11.789062 19.089844 13.054688 19.34375 C 13.703125 19.46875 14.953125 19.46875 15.601562 19.34375 C 18.34375 18.796875 20.476562 16.609375 20.917969 13.890625 C 21.425781 10.746094 19.738281 7.738281 16.8125 6.566406 C 15.855469 6.183594 14.535156 6.003906 13.5625 6.128906 Z M 15.707031 7.242188 C 16.757812 7.507812 17.664062 8.042969 18.441406 8.847656 C 19.207031 9.640625 19.699219 10.570312 19.917969 11.644531 C 20.003906 12.074219 20.019531 12.308594 20 12.960938 C 19.960938 14.140625 19.710938 14.953125 19.089844 15.898438 C 17.660156 18.0625 14.953125 19.007812 12.535156 18.1875 C 10.71875 17.570312 9.390625 16.171875 8.828125 14.289062 C 8.617188 13.605469 8.582031 12.402344 8.738281 11.644531 C 8.957031 10.578125 9.4375 9.667969 10.203125 8.863281 C 11.113281 7.90625 12.246094 7.316406 13.539062 7.109375 C 14.082031 7.027344 15.105469 7.085938 15.707031 7.242188 Z M 15.707031 7.242188 "/>
<path style=" stroke:none;fill-rule:nonzero;fill:rgb(100%,100%,100%);fill-opacity:1;" d="M 14.011719 8.460938 C 13.890625 8.507812 13.78125 8.792969 13.78125 9.074219 C 13.78125 9.328125 13.769531 9.347656 13.621094 9.378906 C 13.375 9.433594 12.882812 9.8125 12.699219 10.09375 C 12.429688 10.496094 12.34375 10.824219 12.371094 11.335938 C 12.382812 11.675781 12.425781 11.863281 12.527344 12.085938 C 12.824219 12.714844 13.464844 13.152344 14.195312 13.21875 C 14.640625 13.257812 14.925781 13.382812 15.117188 13.632812 C 15.503906 14.140625 15.328125 14.863281 14.75 15.144531 C 14.449219 15.289062 14.207031 15.289062 13.90625 15.144531 C 13.589844 14.988281 13.410156 14.738281 13.328125 14.339844 C 13.238281 13.914062 13.121094 13.78125 12.824219 13.78125 C 12.65625 13.78125 12.566406 13.8125 12.472656 13.914062 C 12.359375 14.03125 12.347656 14.09375 12.371094 14.421875 C 12.410156 15.097656 12.863281 15.761719 13.480469 16.035156 L 13.769531 16.160156 L 13.792969 16.511719 C 13.820312 16.921875 13.941406 17.0625 14.269531 17.0625 C 14.597656 17.058594 14.765625 16.855469 14.765625 16.449219 L 14.765625 16.210938 L 15.117188 16.054688 C 15.53125 15.882812 15.964844 15.453125 16.148438 15.054688 C 16.246094 14.84375 16.269531 14.695312 16.269531 14.246094 C 16.269531 13.765625 16.253906 13.660156 16.121094 13.386719 C 15.820312 12.742188 15.234375 12.34375 14.464844 12.261719 C 14.21875 12.234375 13.945312 12.167969 13.851562 12.117188 C 13.476562 11.925781 13.238281 11.414062 13.347656 11.019531 C 13.523438 10.386719 14.164062 10.066406 14.742188 10.332031 C 15.050781 10.46875 15.246094 10.742188 15.316406 11.132812 C 15.398438 11.550781 15.535156 11.703125 15.816406 11.703125 C 15.96875 11.703125 16.066406 11.664062 16.171875 11.5625 C 16.300781 11.429688 16.308594 11.390625 16.285156 11.058594 C 16.257812 10.652344 16.117188 10.28125 15.875 9.980469 C 15.691406 9.746094 15.253906 9.4375 14.972656 9.351562 C 14.769531 9.292969 14.765625 9.28125 14.765625 9.046875 C 14.765625 8.78125 14.695312 8.601562 14.550781 8.492188 C 14.464844 8.425781 14.140625 8.40625 14.011719 8.460938 Z M 14.011719 8.460938 "/>
<path style=" stroke:none;fill-rule:nonzero;fill:rgb(100%,100%,100%);fill-opacity:1;" d="M 2.128906 18.785156 C 2.046875 18.828125 1.964844 18.90625 1.941406 18.960938 C 1.910156 19.054688 1.699219 25.675781 1.695312 26.839844 C 1.695312 27.675781 1.644531 27.648438 3.09375 27.695312 C 3.722656 27.710938 4.625 27.742188 5.097656 27.757812 L 5.957031 27.792969 L 6.125 27.628906 C 6.257812 27.492188 6.289062 27.414062 6.289062 27.21875 C 6.289062 27.082031 6.320312 26.949219 6.359375 26.921875 C 6.394531 26.890625 6.675781 26.738281 6.984375 26.578125 C 7.878906 26.117188 7.667969 26.097656 11.101562 27.058594 C 12.710938 27.511719 14.175781 27.90625 14.351562 27.941406 C 14.820312 28.027344 15.992188 28.015625 16.5 27.917969 C 17.050781 27.8125 17.652344 27.605469 18.015625 27.402344 C 18.703125 27.015625 26.128906 22.175781 26.273438 22.027344 C 26.472656 21.808594 26.441406 21.585938 26.144531 21.195312 C 25.621094 20.496094 24.609375 20.140625 23.761719 20.359375 C 23.574219 20.410156 22.585938 20.839844 21.550781 21.332031 C 19.878906 22.121094 19.664062 22.207031 19.621094 22.125 C 19.472656 21.863281 19.074219 21.449219 18.773438 21.242188 C 18.0625 20.753906 17.757812 20.703125 15.011719 20.621094 C 13.082031 20.566406 13.109375 20.574219 12.070312 20.070312 C 11.253906 19.675781 10.632812 19.492188 9.839844 19.402344 C 8.871094 19.292969 7.714844 19.472656 6.8125 19.875 L 6.507812 20.011719 L 6.507812 19.554688 C 6.507812 19.15625 6.492188 19.085938 6.382812 18.964844 C 6.25 18.828125 6.238281 18.824219 5.109375 18.789062 C 4.480469 18.773438 3.582031 18.742188 3.117188 18.730469 C 2.429688 18.707031 2.242188 18.714844 2.128906 18.785156 Z M 5.511719 19.769531 C 5.519531 19.773438 5.484375 21.359375 5.429688 23.285156 L 5.335938 26.792969 L 4.023438 26.757812 C 3.296875 26.742188 2.695312 26.71875 2.683594 26.710938 C 2.675781 26.699219 2.707031 25.234375 2.757812 23.449219 C 2.804688 21.667969 2.84375 20.09375 2.84375 19.949219 L 2.84375 19.691406 L 4.171875 19.726562 C 4.898438 19.742188 5.5 19.765625 5.511719 19.769531 Z M 10.460938 20.503906 C 10.695312 20.5625 11.234375 20.777344 11.648438 20.972656 C 12.796875 21.515625 12.949219 21.542969 14.957031 21.601562 C 17.28125 21.671875 17.421875 21.683594 17.800781 21.824219 C 18.242188 21.988281 18.746094 22.488281 18.90625 22.914062 C 18.972656 23.078125 19.015625 23.214844 19.007812 23.21875 C 19.007812 23.21875 17.898438 23.191406 16.542969 23.148438 C 15.191406 23.109375 14.027344 23.089844 13.957031 23.105469 C 13.753906 23.15625 13.617188 23.328125 13.617188 23.546875 C 13.617188 23.800781 13.6875 23.925781 13.875 23.996094 C 13.96875 24.035156 14.929688 24.078125 16.242188 24.117188 C 20.039062 24.214844 19.710938 24.222656 19.875 24.066406 C 20 23.949219 20.015625 23.894531 20.015625 23.542969 L 20.015625 23.148438 L 21.726562 22.339844 C 24.003906 21.257812 24.011719 21.25 24.390625 21.289062 C 24.679688 21.3125 25.15625 21.503906 25.15625 21.589844 C 25.15625 21.613281 23.429688 22.75 21.3125 24.117188 C 17.777344 26.410156 17.429688 26.617188 16.953125 26.78125 C 16.269531 27.011719 15.488281 27.097656 14.863281 27.019531 C 14.578125 26.988281 13.257812 26.644531 11.460938 26.140625 C 9.84375 25.6875 8.367188 25.296875 8.179688 25.28125 C 7.726562 25.242188 7.136719 25.375 6.675781 25.621094 L 6.328125 25.808594 L 6.367188 24.675781 C 6.382812 24.050781 6.414062 23.011719 6.429688 22.363281 L 6.46875 21.179688 L 6.75 21.015625 C 7.230469 20.726562 7.851562 20.511719 8.585938 20.375 C 8.914062 20.316406 10.046875 20.394531 10.460938 20.503906 Z M 10.460938 20.503906 "/>
</g>
</svg>
